<svg xmlns="http://www.w3.org/2000/svg" viewBox="0 0 80 80">
  <!-- Pixel art bishop: 10x10 block grid, 8 units per block, rects only -->
  <!-- Mitre tapering from 2px tip to 8px base, accent gem at centre band -->

  <!-- Row 0: --  --  --  --  ##  ##  --  --  --  -- -->
  <rect x="32" y="0"  width="16" height="8" fill="{stroke}"/>
  <!-- Row 1: --  --  --  ##  HH  oo  ##  --  --  -- -->
  <rect x="24" y="8"  width="8"  height="8" fill="{stroke}"/>
  <rect x="32" y="8"  width="8"  height="8" fill="{fill_hi}"/>
  <rect x="40" y="8"  width="8"  height="8" fill="{fill_lo}"/>
  <rect x="48" y="8"  width="8"  height="8" fill="{stroke}"/>
  <!-- Row 2: --  --  --  ##  HH  oo  ##  --  --  -- -->
  <rect x="24" y="16" width="8"  height="8" fill="{stroke}"/>
  <rect x="32" y="16" width="8"  height="8" fill="{fill_hi}"/>
  <rect x="40" y="16" width="8"  height="8" fill="{fill_lo}"/>
  <rect x="48" y="16" width="8"  height="8" fill="{stroke}"/>
  <!-- Row 3: --  --  ##  HH  HH  oo  oo  ##  --  -- -->
  <rect x="16" y="24" width="8"  height="8" fill="{stroke}"/>
  <rect x="24" y="24" width="16" height="8" fill="{fill_hi}"/>
  <rect x="40" y="24" width="16" height="8" fill="{fill_lo}"/>
  <rect x="56" y="24" width="8"  height="8" fill="{stroke}"/>
  <!-- Row 4: --  ##  HH  HH  HH  oo  oo  oo  ##  -- -->
  <rect x="8"  y="32" width="8"  height="8" fill="{stroke}"/>
  <rect x="16" y="32" width="24" height="8" fill="{fill_hi}"/>
  <rect x="40" y="32" width="24" height="8" fill="{fill_lo}"/>
  <rect x="64" y="32" width="8"  height="8" fill="{stroke}"/>
  <!-- Row 5: --  ##  oo  oo  **  oo  oo  oo  ##  -- -->
  <rect x="8"  y="40" width="8"  height="8" fill="{stroke}"/>
  <rect x="16" y="40" width="16" height="8" fill="{fill_lo}"/>
  <rect x="32" y="40" width="8"  height="8" fill="{accent}"/>
  <rect x="40" y="40" width="24" height="8" fill="{fill_lo}"/>
  <rect x="64" y="40" width="8"  height="8" fill="{stroke}"/>
  <!-- Row 6: --  --  ##  HH  HH  oo  oo  ##  --  -- -->
  <rect x="16" y="48" width="8"  height="8" fill="{stroke}"/>
  <rect x="24" y="48" width="16" height="8" fill="{fill_hi}"/>
  <rect x="40" y="48" width="16" height="8" fill="{fill_lo}"/>
  <rect x="56" y="48" width="8"  height="8" fill="{stroke}"/>
  <!-- Row 7: --  --  ##  ##  ##  ##  ##  ##  --  -- -->
  <rect x="16" y="56" width="48" height="8" fill="{stroke}"/>
  <!-- Row 8: ##  HH  HH  ..  ..  ..  oo  oo  oo  ## -->
  <rect x="0"  y="64" width="8"  height="8" fill="{stroke}"/>
  <rect x="8"  y="64" width="16" height="8" fill="{fill_hi}"/>
  <rect x="24" y="64" width="24" height="8" fill="{fill}"/>
  <rect x="48" y="64" width="24" height="8" fill="{fill_lo}"/>
  <rect x="72" y="64" width="8"  height="8" fill="{stroke}"/>
  <!-- Row 9: ##  ##  ##  ##  ##  ##  ##  ##  ##  ## -->
  <rect x="0"  y="72" width="80" height="8" fill="{stroke}"/>
</svg>
