<svg xmlns="http://www.w3.org/2000/svg" viewBox="0 0 80 80">
  <!-- Pixel art knight: 10x10 block grid, 8 units per block, rects only -->
  <!-- Horse head profile facing right: ear spike top-center, eye (accent)   -->
  <!-- on right cheek, snout extends right, neck narrows into collar+base    -->

  <!-- Row 0: ear tip (col 5) -->
  <rect x="40" y="0"  width="8"  height="8" fill="{stroke}"/>
  <!-- Row 1: ear body (cols 4-6) -->
  <rect x="32" y="8"  width="8"  height="8" fill="{stroke}"/>
  <rect x="40" y="8"  width="8"  height="8" fill="{fill_hi}"/>
  <rect x="48" y="8"  width="8"  height="8" fill="{stroke}"/>
  <!-- Row 2: head top (cols 3-7, 5px wide) -->
  <rect x="24" y="16" width="8"  height="8" fill="{stroke}"/>
  <rect x="32" y="16" width="8"  height="8" fill="{fill_hi}"/>
  <rect x="40" y="16" width="8"  height="8" fill="{fill}"/>
  <rect x="48" y="16" width="8"  height="8" fill="{fill_lo}"/>
  <rect x="56" y="16" width="8"  height="8" fill="{stroke}"/>
  <!-- Row 3: head (cols 2-8, 7px), accent eye at col 6 -->
  <rect x="16" y="24" width="8"  height="8" fill="{stroke}"/>
  <rect x="24" y="24" width="16" height="8" fill="{fill_hi}"/>
  <rect x="40" y="24" width="8"  height="8" fill="{fill}"/>
  <rect x="48" y="24" width="8"  height="8" fill="{accent}"/>
  <rect x="56" y="24" width="8"  height="8" fill="{fill_lo}"/>
  <rect x="64" y="24" width="8"  height="8" fill="{stroke}"/>
  <!-- Row 4: head lower (cols 2-8) -->
  <rect x="16" y="32" width="8"  height="8" fill="{stroke}"/>
  <rect x="24" y="32" width="8"  height="8" fill="{fill_hi}"/>
  <rect x="32" y="32" width="16" height="8" fill="{fill}"/>
  <rect x="48" y="32" width="16" height="8" fill="{fill_lo}"/>
  <rect x="64" y="32" width="8"  height="8" fill="{stroke}"/>
  <!-- Row 5: snout (cols 3-8, right edge maintained) -->
  <rect x="24" y="40" width="8"  height="8" fill="{stroke}"/>
  <rect x="32" y="40" width="8"  height="8" fill="{fill_hi}"/>
  <rect x="40" y="40" width="8"  height="8" fill="{fill}"/>
  <rect x="48" y="40" width="16" height="8" fill="{fill_lo}"/>
  <rect x="64" y="40" width="8"  height="8" fill="{stroke}"/>
  <!-- Row 6: neck (cols 2-6, 5px, narrows on right) -->
  <rect x="16" y="48" width="8"  height="8" fill="{stroke}"/>
  <rect x="24" y="48" width="8"  height="8" fill="{fill_hi}"/>
  <rect x="32" y="48" width="8"  height="8" fill="{fill}"/>
  <rect x="40" y="48" width="8"  height="8" fill="{fill_lo}"/>
  <rect x="48" y="48" width="8"  height="8" fill="{stroke}"/>
  <!-- Row 7: collar (cols 2-7, solid outline) -->
  <rect x="16" y="56" width="48" height="8" fill="{stroke}"/>
  <!-- Row 8: base -->
  <rect x="0"  y="64" width="8"  height="8" fill="{stroke}"/>
  <rect x="8"  y="64" width="16" height="8" fill="{fill_hi}"/>
  <rect x="24" y="64" width="24" height="8" fill="{fill}"/>
  <rect x="48" y="64" width="24" height="8" fill="{fill_lo}"/>
  <rect x="72" y="64" width="8"  height="8" fill="{stroke}"/>
  <!-- Row 9: base bottom -->
  <rect x="0"  y="72" width="80" height="8" fill="{stroke}"/>
</svg>
