<svg xmlns="http://www.w3.org/2000/svg" viewBox="0 0 80 80">
  <!-- Pixel art knight: horse head profile facing left -->
  <!-- Ear: col 6 rows 0-1 (right of centre, unlike bishop centred tip) -->
  <!-- Eye: accent at col 5, row 2                                       -->
  <!-- Snout: extends left to col 0 in row 4                             -->
  <!-- Mouth gap: row 5 starts at col 1 leaving col 0 open               -->

  <!-- Row 0: ear tip (col 6 only) -->
  <rect x="48" y="0"  width="8"  height="8" fill="{stroke}"/>
  <!-- Row 1: ear base (cols 4-6) -->
  <rect x="32" y="8"  width="8"  height="8" fill="{stroke}"/>
  <rect x="40" y="8"  width="8"  height="8" fill="{fill_hi}"/>
  <rect x="48" y="8"  width="8"  height="8" fill="{stroke}"/>
  <!-- Row 2: upper face with eye accent (cols 2-7) -->
  <rect x="16" y="16" width="8"  height="8" fill="{stroke}"/>
  <rect x="24" y="16" width="8"  height="8" fill="{fill_hi}"/>
  <rect x="32" y="16" width="8"  height="8" fill="{fill_hi}"/>
  <rect x="40" y="16" width="8"  height="8" fill="{accent}"/>
  <rect x="48" y="16" width="8"  height="8" fill="{fill_lo}"/>
  <rect x="56" y="16" width="8"  height="8" fill="{stroke}"/>
  <!-- Row 3: wide mid-face (cols 1-7) -->
  <rect x="8"  y="24" width="8"  height="8" fill="{stroke}"/>
  <rect x="16" y="24" width="16" height="8" fill="{fill_hi}"/>
  <rect x="32" y="24" width="8"  height="8" fill="{fill}"/>
  <rect x="40" y="24" width="16" height="8" fill="{fill_lo}"/>
  <rect x="56" y="24" width="8"  height="8" fill="{stroke}"/>
  <!-- Row 4: snout extends left to col 0 (cols 0-5) -->
  <rect x="0"  y="32" width="8"  height="8" fill="{stroke}"/>
  <rect x="8"  y="32" width="8"  height="8" fill="{fill_hi}"/>
  <rect x="16" y="32" width="16" height="8" fill="{fill}"/>
  <rect x="32" y="32" width="8"  height="8" fill="{fill_lo}"/>
  <rect x="40" y="32" width="8"  height="8" fill="{stroke}"/>
  <!-- Row 5: lower jaw starts at col 1 — col 0 open = mouth (cols 1-5) -->
  <rect x="8"  y="40" width="8"  height="8" fill="{stroke}"/>
  <rect x="16" y="40" width="8"  height="8" fill="{fill_hi}"/>
  <rect x="24" y="40" width="8"  height="8" fill="{fill}"/>
  <rect x="32" y="40" width="8"  height="8" fill="{fill_lo}"/>
  <rect x="40" y="40" width="8"  height="8" fill="{stroke}"/>
  <!-- Row 6: neck narrows (cols 2-5) -->
  <rect x="16" y="48" width="8"  height="8" fill="{stroke}"/>
  <rect x="24" y="48" width="8"  height="8" fill="{fill_hi}"/>
  <rect x="32" y="48" width="8"  height="8" fill="{fill_lo}"/>
  <rect x="40" y="48" width="8"  height="8" fill="{stroke}"/>
  <!-- Row 7: collar -->
  <rect x="16" y="56" width="48" height="8" fill="{stroke}"/>
  <!-- Row 8: base -->
  <rect x="0"  y="64" width="8"  height="8" fill="{stroke}"/>
  <rect x="8"  y="64" width="16" height="8" fill="{fill_hi}"/>
  <rect x="24" y="64" width="24" height="8" fill="{fill}"/>
  <rect x="48" y="64" width="24" height="8" fill="{fill_lo}"/>
  <rect x="72" y="64" width="8"  height="8" fill="{stroke}"/>
  <!-- Row 9: base bottom -->
  <rect x="0"  y="72" width="80" height="8" fill="{stroke}"/>
</svg>
