<svg xmlns="http://www.w3.org/2000/svg" viewBox="0 0 80 80">
  <!-- V3: Arched Neck — compact head, neck curves right creating S-shape -->

  <!-- Row 0: single tall ear col 6 -->
  <rect x="48" y="0"  width="8"  height="8" fill="{stroke}"/>
  <!-- Row 1: ear continues col 6, forehead cols 4-5 -->
  <rect x="32" y="8"  width="8"  height="8" fill="{stroke}"/>
  <rect x="40" y="8"  width="8"  height="8" fill="{fill_hi}"/>
  <rect x="48" y="8"  width="8"  height="8" fill="{stroke}"/>
  <!-- Row 2: face cols 3-7, eye accent at col 5 -->
  <rect x="24" y="16" width="8"  height="8" fill="{stroke}"/>
  <rect x="32" y="16" width="8"  height="8" fill="{fill_hi}"/>
  <rect x="40" y="16" width="8"  height="8" fill="{accent}"/>
  <rect x="48" y="16" width="8"  height="8" fill="{fill_lo}"/>
  <rect x="56" y="16" width="8"  height="8" fill="{stroke}"/>
  <!-- Row 3: face cols 2-6 -->
  <rect x="16" y="24" width="8"  height="8" fill="{stroke}"/>
  <rect x="24" y="24" width="8"  height="8" fill="{fill_hi}"/>
  <rect x="32" y="24" width="8"  height="8" fill="{fill}"/>
  <rect x="40" y="24" width="8"  height="8" fill="{fill_lo}"/>
  <rect x="48" y="24" width="8"  height="8" fill="{stroke}"/>
  <!-- Row 4: snout cols 0-4 -->
  <rect x="0"  y="32" width="8"  height="8" fill="{stroke}"/>
  <rect x="8"  y="32" width="8"  height="8" fill="{fill_hi}"/>
  <rect x="16" y="32" width="8"  height="8" fill="{fill}"/>
  <rect x="24" y="32" width="8"  height="8" fill="{fill_lo}"/>
  <rect x="32" y="32" width="8"  height="8" fill="{stroke}"/>
  <!-- Row 5: jaw cols 1-3, col 0 = mouth gap -->
  <rect x="8"  y="40" width="8"  height="8" fill="{stroke}"/>
  <rect x="16" y="40" width="8"  height="8" fill="{fill_hi}"/>
  <rect x="24" y="40" width="8"  height="8" fill="{stroke}"/>
  <!-- Row 6: neck arches RIGHT to cols 3-6 (S-curve vs head at cols 2-6) -->
  <rect x="24" y="48" width="8"  height="8" fill="{stroke}"/>
  <rect x="32" y="48" width="8"  height="8" fill="{fill_hi}"/>
  <rect x="40" y="48" width="8"  height="8" fill="{fill_lo}"/>
  <rect x="48" y="48" width="8"  height="8" fill="{stroke}"/>
  <!-- Row 7: collar -->
  <rect x="16" y="56" width="48" height="8" fill="{stroke}"/>
  <!-- Row 8: base -->
  <rect x="0"  y="64" width="8"  height="8" fill="{stroke}"/>
  <rect x="8"  y="64" width="16" height="8" fill="{fill_hi}"/>
  <rect x="24" y="64" width="24" height="8" fill="{fill}"/>
  <rect x="48" y="64" width="24" height="8" fill="{fill_lo}"/>
  <rect x="72" y="64" width="8"  height="8" fill="{stroke}"/>
  <!-- Row 9: base bottom -->
  <rect x="0"  y="72" width="80" height="8" fill="{stroke}"/>
</svg>
